<svg id="Layer_2" data-name="Layer 2" xmlns="http://www.w3.org/2000/svg" viewBox="0 0 655 655"><defs><style>.cls-1,.cls-2,.cls-3{fill:none;stroke-miterlimit:10;}.cls-1{stroke:#009fc2;}.cls-1,.cls-2{stroke-width:15px;}.cls-2{stroke:#c0151b;}.cls-3{stroke:#fff;stroke-width:28px;}</style></defs><polygon class="cls-1" points="159.2 345.78 159.2 191.91 7.5 228.81 7.5 346.78 159.2 345.78"/><polygon class="cls-2" points="197.88 383.9 197.88 221.07 46.35 259.06 46.35 383.9 197.88 383.9"/><polygon class="cls-3" points="178.62 365.21 178.62 207.09 27.1 243.99 27.1 365.21 178.62 365.21"/><polygon class="cls-1" points="218.75 62.46 563.6 8.76 563.6 346.02 218.75 347.02 218.75 62.46"/><polygon class="cls-2" points="254.6 92.62 602.45 39.92 602.45 384.18 254.6 384.18 254.6 92.62"/><polygon class="cls-3" points="235.35 76.65 583.2 23.94 583.2 365.21 235.35 365.21 235.35 76.65"/><polygon class="cls-1" points="158.2 404.35 158.2 498.18 57.74 467.87 57.74 404.35 158.2 404.35"/><polygon class="cls-2" points="197.04 441.51 197.04 547.33 92.59 517.03 92.59 441.51 197.04 441.51"/><polygon class="cls-1" points="214.87 406.35 422.74 406.35 422.74 600 214.87 564.42 214.87 406.35"/><polygon class="cls-2" points="253.72 444.51 460.58 444.51 460.58 645.16 253.72 609.58 253.72 444.51"/><polygon class="cls-3" points="177.79 423.54 177.79 522.36 76.34 492.06 76.34 423.54 177.79 423.54"/><polygon class="cls-3" points="234.47 425.54 441.33 425.54 441.33 623.18 234.47 587.61 234.47 425.54"/></svg>