<?xml version="1.0" encoding="UTF-8" standalone="no"?>
<svg
   id="Layer_2"
   data-name="Layer 2"
   viewBox="0 0 924.99999 925"
   version="1.1"
   sodipodi:docname="MTClogo.svg"
   width="925"
   height="925"
   inkscape:version="1.4.2 (f4327f4, 2025-05-13)"
   xmlns:inkscape="http://www.inkscape.org/namespaces/inkscape"
   xmlns:sodipodi="http://sodipodi.sourceforge.net/DTD/sodipodi-0.dtd"
   xmlns="http://www.w3.org/2000/svg"
   xmlns:svg="http://www.w3.org/2000/svg">
  <sodipodi:namedview
     id="namedview12"
     pagecolor="#505050"
     bordercolor="#eeeeee"
     borderopacity="1"
     inkscape:showpageshadow="0"
     inkscape:pageopacity="0"
     inkscape:pagecheckerboard="0"
     inkscape:deskcolor="#505050"
     inkscape:zoom="0.89211999"
     inkscape:cx="265.65933"
     inkscape:cy="482.5584"
     inkscape:window-width="2560"
     inkscape:window-height="1369"
     inkscape:window-x="-8"
     inkscape:window-y="-8"
     inkscape:window-maximized="1"
     inkscape:current-layer="Layer_2" />
  <defs
     id="defs1">
    <style
       id="style1">.cls-1,.cls-2,.cls-3{fill:none;stroke-miterlimit:10;}.cls-1{stroke:#009fc2;}.cls-1,.cls-2{stroke-width:15px;}.cls-2{stroke:#c0151b;}.cls-3{stroke:#fff;stroke-width:28px;}</style>
  </defs>
  <circle
     style="fill:#000000;fill-opacity:1;stroke:none;stroke-width:2.64286"
     id="path12"
     cx="462.5"
     cy="462.5"
     r="462.5"
     inkscape:label="Circle" />
  <g
     inkscape:groupmode="layer"
     id="layer1"
     inkscape:label="Logo"
     transform="translate(5.07914,-12.493084)">
    <polygon
       class="cls-1"
       points="7.5,228.81 7.5,346.78 159.2,345.78 159.2,191.91 "
       id="polygon1"
       transform="translate(152.44586,147.96216)" />
    <polygon
       class="cls-2"
       points="46.35,259.06 46.35,383.9 197.88,383.9 197.88,221.07 "
       id="polygon2"
       transform="translate(152.44586,147.96216)" />
    <polygon
       class="cls-2"
       points="602.45,384.18 254.6,384.18 254.6,92.62 602.45,39.92 "
       id="polygon5"
       transform="translate(152.44586,147.96216)" />
    <polygon
       class="cls-3"
       points="27.1,243.99 27.1,365.21 178.62,365.21 178.62,207.09 "
       id="polygon3"
       transform="translate(152.44586,147.96216)" />
    <polygon
       class="cls-1"
       points="563.6,346.02 218.75,347.02 218.75,62.46 563.6,8.76 "
       id="polygon4"
       transform="translate(152.44586,147.96216)" />
    <polygon
       class="cls-3"
       points="583.2,365.21 235.35,365.21 235.35,76.65 583.2,23.94 "
       id="polygon6"
       transform="translate(152.44586,147.96216)" />
    <polygon
       class="cls-1"
       points="57.74,467.87 57.74,404.35 158.2,404.35 158.2,498.18 "
       id="polygon7"
       transform="translate(152.44586,147.96216)" />
    <polygon
       class="cls-2"
       points="92.59,517.03 92.59,441.51 197.04,441.51 197.04,547.33 "
       id="polygon8"
       transform="translate(152.44586,147.96216)" />
    <polygon
       class="cls-1"
       points="422.74,600 214.87,564.42 214.87,406.35 422.74,406.35 "
       id="polygon9"
       transform="translate(152.44586,147.96216)" />
    <polygon
       class="cls-2"
       points="460.58,645.16 253.72,609.58 253.72,444.51 460.58,444.51 "
       id="polygon10"
       transform="translate(152.44586,147.96216)" />
    <polygon
       class="cls-3"
       points="76.34,492.06 76.34,423.54 177.79,423.54 177.79,522.36 "
       id="polygon11"
       transform="translate(152.44586,147.96216)" />
    <polygon
       class="cls-3"
       points="441.33,623.18 234.47,587.61 234.47,425.54 441.33,425.54 "
       id="polygon12"
       transform="translate(152.44586,147.96216)" />
  </g>
</svg>
